# xmcd
#
# Track frame offsets:
#	150
#	10549
#	21875
#	33274
#	45167
#	57032
#	67183
#	76397
#	89377
#	100354
#	112147
#	123612
#	136852
#	149255
#	162599
#	176711
#	186517
#	200179
#	212799
#	223456
#	234511
#	247676
#	259933
#	270992
#	284464
#	296877
#
# Disc length: 4127 seconds
#
# Revision: 2
# Processed by: cddbd v1.5.2PL0 Copyright (c) Steve Scherf et al.
# Submitted via: audiograbber 1.83.01
#
DISCID=92101d1a
DTITLE=Hank Ballard ( Royals and Midnighters) - Sexy Ways    PROPER 2006
DYEAR=2006
DGENRE=Rhythm and Blues
TTITLE0=Royals - Get It             Federal 12133   1953
TTITLE1=Royals - No It Ain't        Federal 12133   1953
TTITLE2=Royals - That's It        Federal 12160   1953
TTITLE3=Royals - Hello Miss Fine      Federal 12150   1953
TTITLE4=Royals - Someone Like You       Federal 12160   1953
TTITLE5=Royals - I Feel That-A-Way        Federal 12150   1953
TTITLE6=Royals  also as Midnighters - That Woman       Federal 12177   1954
TTITLE7=Royals  also as Midnighters - Work With Me Annie       Federal 12169   
TTITLE7=1954
TTITLE8=Royals  also as Midnighters - Until I Die        Federal 12169   1954
TTITLE9=Royals  also as Midnighters - Give It Up      Federal 12177   1954
TTITLE10=Midnighters - Sexy Ways       Federal 12185   1954
TTITLE11=Midnighters - Don't Say Your Last Goodbye       Federal 12185   1954
TTITLE12=Midnighters - Annie Had A Baby       Federal 12195   1954
TTITLE13=Midnighters - Stingy Little Thing        Federal 12202   1954
TTITLE14=Midnighters - Crazy Lovin' (Stay With Me)      Federal 12200   1954
TTITLE15=Midnighters - Tell Them       Federal 12202   1954
TTITLE16=Midnighters - Ashamed Of Myself       Federal 12210   1955
TTITLE17=Midnighters - Ring-A-Ling-A-Ling        Federal 12210   1955
TTITLE18=Midnighters - Whatsonever You Do       Federal 12224   1955
TTITLE19=Midnighters - Don't Change Your Pretty Ways        Federal 12243   195
TTITLE19=5
TTITLE20=Midnighters - It's Love Baby (24 Hours A Day)       Federal 12227   19
TTITLE20=55
TTITLE21=Midnighters - Rock And Roll Wedding        Federal 12240   1955
TTITLE22=Midnighters - That House On The Hill         Federal 12240   1955
TTITLE23=Midnighters - Open Up The Back Door        Federal 12260   1956
TTITLE24=Midnighters - Sweet Mama Do Right         Federal 12251   1956
TTITLE25=Midnighters - Rock, Granny, Roll        Federal 12260   1956
EXTD=
EXTT0=
EXTT1=
EXTT2=
EXTT3=
EXTT4=
EXTT5=
EXTT6=
EXTT7=
EXTT8=
EXTT9=
EXTT10=
EXTT11=
EXTT12=
EXTT13=
EXTT14=
EXTT15=
EXTT16=
EXTT17=
EXTT18=
EXTT19=
EXTT20=
EXTT21=
EXTT22=
EXTT23=
EXTT24=
EXTT25=
PLAYORDER=
